<?xml version="1.0" encoding="UTF-8"?>
<svg width="201px" height="142px" viewBox="0 0 201 142" version="1.1" xmlns="http://www.w3.org/2000/svg" xmlns:xlink="http://www.w3.org/1999/xlink">
    <title>4</title>
    <g id="插画" stroke="none" stroke-width="1" fill="none" fill-rule="evenodd">
        <g id="Apple-TV" transform="translate(-1462.000000, -353.000000)">
            <g id="4" transform="translate(1462.000000, 353.000000)">
                <g id="编组-21" transform="translate(48.412829, 58.832903) rotate(-53.000000) translate(-48.412829, -58.832903) translate(-17.587171, 49.832903)" fill="#C3C3C4" fill-rule="nonzero">
                    <path d="M74.8868468,-56.122449 L74.8868468,74.4897959 L57.539908,74.4897959 L57.539908,-56.122449 L74.8868468,-56.122449 Z M73.886,-55.122 L58.539,-55.122 L58.539,73.489 L73.886,73.489 L73.886,-55.122 Z" id="矩形" transform="translate(66.213377, 9.183673) rotate(-270.000000) translate(-66.213377, -9.183673) "></path>
                    <g id="编组-20" transform="translate(119.306122, 4.875701) rotate(-90.000000) translate(-119.306122, -4.875701) translate(115.806122, 0.875701)">
                        <polygon id="直线备份-9" transform="translate(3.316327, 0.510204) scale(1, -1) translate(-3.316327, -0.510204) " points="7.13265306 0.0102040816 7.13265306 1.01020408 -0.5 1.01020408 -0.5 0.0102040816"></polygon>
                        <polygon id="直线备份-10" transform="translate(3.316327, 6.632653) scale(1, -1) translate(-3.316327, -6.632653) " points="7.13265306 6.13265306 7.13265306 7.13265306 -0.5 7.13265306 -0.5 6.13265306"></polygon>
                    </g>
                    <g id="编组-20备份-2" transform="translate(94.816327, 4.875701) rotate(-90.000000) translate(-94.816327, -4.875701) translate(91.316327, 0.875701)">
                        <polygon id="直线备份-9" transform="translate(3.316327, 0.510204) scale(1, -1) translate(-3.316327, -0.510204) " points="7.13265306 0.0102040816 7.13265306 1.01020408 -0.5 1.01020408 -0.5 0.0102040816"></polygon>
                        <polygon id="直线备份-10" transform="translate(3.316327, 6.632653) scale(1, -1) translate(-3.316327, -6.632653) " points="7.13265306 6.13265306 7.13265306 7.13265306 -0.5 7.13265306 -0.5 6.13265306"></polygon>
                    </g>
                    <g id="编组-20备份-4" transform="translate(70.326531, 4.875701) rotate(-90.000000) translate(-70.326531, -4.875701) translate(66.826531, 0.875701)">
                        <polygon id="直线备份-9" transform="translate(3.316327, 0.510204) scale(1, -1) translate(-3.316327, -0.510204) " points="7.13265306 0.0102040816 7.13265306 1.01020408 -0.5 1.01020408 -0.5 0.0102040816"></polygon>
                        <polygon id="直线备份-10" transform="translate(3.316327, 6.632653) scale(1, -1) translate(-3.316327, -6.632653) " points="7.13265306 6.13265306 7.13265306 7.13265306 -0.5 7.13265306 -0.5 6.13265306"></polygon>
                    </g>
                    <g id="编组-20备份-6" transform="translate(45.836735, 4.875701) rotate(-90.000000) translate(-45.836735, -4.875701) translate(42.336735, 0.875701)">
                        <polygon id="直线备份-9" transform="translate(3.316327, 0.510204) scale(1, -1) translate(-3.316327, -0.510204) " points="7.13265306 0.0102040816 7.13265306 1.01020408 -0.5 1.01020408 -0.5 0.0102040816"></polygon>
                        <polygon id="直线备份-10" transform="translate(3.316327, 6.632653) scale(1, -1) translate(-3.316327, -6.632653) " points="7.13265306 6.13265306 7.13265306 7.13265306 -0.5 7.13265306 -0.5 6.13265306"></polygon>
                    </g>
                    <g id="编组-20备份" transform="translate(107.061224, 4.875701) rotate(-90.000000) translate(-107.061224, -4.875701) translate(103.561224, 0.875701)">
                        <polygon id="直线备份-9" transform="translate(3.316327, 0.510204) scale(1, -1) translate(-3.316327, -0.510204) " points="7.13265306 0.0102040816 7.13265306 1.01020408 -0.5 1.01020408 -0.5 0.0102040816"></polygon>
                        <polygon id="直线备份-10" transform="translate(3.316327, 6.632653) scale(1, -1) translate(-3.316327, -6.632653) " points="7.13265306 6.13265306 7.13265306 7.13265306 -0.5 7.13265306 -0.5 6.13265306"></polygon>
                    </g>
                    <g id="编组-20备份-3" transform="translate(82.571429, 4.875701) rotate(-90.000000) translate(-82.571429, -4.875701) translate(79.071429, 0.875701)">
                        <polygon id="直线备份-9" transform="translate(3.316327, 0.510204) scale(1, -1) translate(-3.316327, -0.510204) " points="7.13265306 0.0102040816 7.13265306 1.01020408 -0.5 1.01020408 -0.5 0.0102040816"></polygon>
                        <polygon id="直线备份-10" transform="translate(3.316327, 6.632653) scale(1, -1) translate(-3.316327, -6.632653) " points="7.13265306 6.13265306 7.13265306 7.13265306 -0.5 7.13265306 -0.5 6.13265306"></polygon>
                    </g>
                    <g id="编组-20备份-5" transform="translate(58.081633, 4.875701) rotate(-90.000000) translate(-58.081633, -4.875701) translate(54.581633, 0.875701)">
                        <polygon id="直线备份-9" transform="translate(3.316327, 0.510204) scale(1, -1) translate(-3.316327, -0.510204) " points="7.13265306 0.0102040816 7.13265306 1.01020408 -0.5 1.01020408 -0.5 0.0102040816"></polygon>
                        <polygon id="直线备份-10" transform="translate(3.316327, 6.632653) scale(1, -1) translate(-3.316327, -6.632653) " points="7.13265306 6.13265306 7.13265306 7.13265306 -0.5 7.13265306 -0.5 6.13265306"></polygon>
                    </g>
                    <g id="编组-20备份-7" transform="translate(33.591837, 4.875701) rotate(-90.000000) translate(-33.591837, -4.875701) translate(30.091837, 0.875701)">
                        <polygon id="直线备份-9" transform="translate(3.316327, 0.510204) scale(1, -1) translate(-3.316327, -0.510204) " points="7.13265306 0.0102040816 7.13265306 1.01020408 -0.5 1.01020408 -0.5 0.0102040816"></polygon>
                        <polygon id="直线备份-10" transform="translate(3.316327, 6.632653) scale(1, -1) translate(-3.316327, -6.632653) " points="7.13265306 6.13265306 7.13265306 7.13265306 -0.5 7.13265306 -0.5 6.13265306"></polygon>
                    </g>
                    <g id="编组-20备份-8" transform="translate(21.346939, 4.875701) rotate(-90.000000) translate(-21.346939, -4.875701) translate(17.846939, 0.875701)">
                        <polygon id="直线备份-9" transform="translate(3.316327, 0.510204) scale(1, -1) translate(-3.316327, -0.510204) " points="7.13265306 0.0102040816 7.13265306 1.01020408 -0.5 1.01020408 -0.5 0.0102040816"></polygon>
                        <polygon id="直线备份-10" transform="translate(3.316327, 6.632653) scale(1, -1) translate(-3.316327, -6.632653) " points="7.13265306 6.13265306 7.13265306 7.13265306 -0.5 7.13265306 -0.5 6.13265306"></polygon>
                    </g>
                    <path d="M9.69387755,6.33488463 C11.1027672,6.33488463 12.244898,7.47701537 12.244898,8.88590504 C12.244898,10.2947947 11.1027672,11.4369254 9.69387755,11.4369254 C8.28498788,11.4369254 7.14285714,10.2947947 7.14285714,8.88590504 C7.14285714,7.47701537 8.28498788,6.33488463 9.69387755,6.33488463 Z M9.69387755,7.33488463 C8.83727263,7.33488463 8.14285714,8.02930012 8.14285714,8.88590504 C8.14285714,9.74250996 8.83727263,10.4369254 9.69387755,10.4369254 C10.5504825,10.4369254 11.244898,9.74250996 11.244898,8.88590504 C11.244898,8.02930012 10.5504825,7.33488463 9.69387755,7.33488463 Z" id="椭圆形"></path>
                </g>
                <g id="编组" transform="translate(31.612245, 26.649503)">
                    <path d="M87.755102,0 L103.061224,15.3061224 L103.061224,103.061224 C103.061224,109.260339 98.0358492,114.285714 91.8367347,114.285714 L91.8367347,114.285714 L11.2244898,114.285714 C14.9300972,112.620446 17.4622053,111.05143 18.8208141,109.578669 C20.179423,108.105907 21.0988107,105.933426 21.5789772,103.061224 L21.5061069,103.468387 C21.4561669,103.349415 21.4285714,103.218746 21.4285714,103.081633 L21.4285714,1 C21.4285714,0.44771525 21.8762867,1.01453063e-16 22.4285714,0 L87.755102,0 Z" id="形状结合" fill="#FFFFFF"></path>
                    <path d="M21.4285714,103.081633 L21.4285714,1 C21.4285714,0.44771525 21.8762867,0 22.4285714,0 L87.755102,0 L103.061224,15.3061224 L103.061224,103.061224 C103.061224,109.163478 98.1916653,114.128385 92.1264438,114.282048 L91.8367347,114.285714 L11.2244898,114.285714 C14.9300972,112.620446 17.4622053,111.05143 18.8208141,109.578669 C20.0397882,108.257274 20.9051858,106.3726 21.417007,103.924646 L21.5061069,103.468387 C21.4561669,103.349415 21.4285714,103.218746 21.4285714,103.081633 Z M102.061224,15.72 L87.34,1 L22.4285714,1 L22.4285714,103.081633 L22.5331213,103.331373 L22.4866146,103.670645 C21.9566968,106.504042 20.9875119,108.704744 19.5558323,110.256716 C18.6737522,111.21291 17.3729908,112.18277 15.6487901,113.176291 L15.456,113.285794 L91.8240816,113.285794 L92.1011168,113.282369 C97.5417153,113.14453 101.910882,108.762029 102.057426,103.342456 L102.061224,103.061224 L102.061224,15.72 Z" id="形状结合" fill="#C1C1C3" fill-rule="nonzero"></path>
                    <polygon id="路径-6" fill="#C1C1C3" fill-rule="nonzero" points="88.255102 0.593785746 88.255 14.806 102.416247 14.8061224 102.416247 15.8061224 87.255102 15.8061224 87.255102 0.593785746"></polygon>
                    <path d="M103.061224,103.061224 C103.061224,109.260339 98.0358492,114.285714 91.8367347,114.285714 C85.7360188,114.285714 80.7720763,109.418609 80.616028,103.355518 L80.6122449,103.061224 L103.061224,103.061224 Z M102.012,104.061 L81.661,104.061 L81.6710204,104.164706 C82.2117438,109.209074 86.4177549,113.143028 91.5555819,113.281918 L91.8367347,113.285714 C97.1071092,113.285714 101.446118,109.298064 102.001229,104.175295 L102.012,104.061 Z" id="路径备份-2" fill="#C1C1C3" fill-rule="nonzero"></path>
                    <polygon id="路径-7" fill="#C1C1C3" fill-rule="nonzero" points="81.1865099 103.068279 81.1865099 104.068279 22.4489796 104.068279 22.4489796 103.068279"></polygon>
                    <circle id="椭圆形" fill="#FFFFFF" cx="91.8367347" cy="103.061224" r="10.2040816"></circle>
                    <path d="M22.4489796,103.061224 C22.4489796,109.260339 17.4236043,114.285714 11.2244898,114.285714 C5.1237739,114.285714 0.159831449,109.418609 0.00378306593,103.355518 L5.32907052e-15,103.061224 L22.4489796,103.061224 Z M21.399,104.061 L1.048,104.061 L1.05877547,104.164706 C1.5994989,109.209074 5.80551,113.143028 10.943337,113.281918 L11.2244898,113.285714 C16.4948643,113.285714 20.8338731,109.298064 21.3889837,104.175295 L21.399,104.061 Z" id="路径" fill="#C1C1C3" fill-rule="nonzero"></path>
                </g>
                <g id="编组-2备份-5" transform="translate(164.110984, 62.648109) rotate(-315.000000) translate(-164.110984, -62.648109) translate(148.610984, 47.148109)" fill="#0C24FF" fill-rule="nonzero">
                    <path d="M31.1122449,-0.5 L8.06244955,-0.5 L-0.5,7.9971146 L-0.5,31.1288511 L22.103798,31.1288511 L31.1122449,22.2444948 L31.1122449,-0.5 Z M30.112,0.5 L30.112,21.826 L21.693,30.128 L0.5,30.128 L0.5,8.413 L8.473,0.5 L30.112,0.5 Z" id="路径备份"></path>
                    <polygon id="路径-3" points="30.2694656 -0.364008685 30.9550242 0.364008685 22.0970852 8.70534399 0 8.70534399 0 7.70534399 21.699 7.705"></polygon>
                    <polygon id="路径-4" points="22.3987196 8.20534399 22.3987196 30.6288511 21.3987196 30.6288511 21.3987196 8.20534399"></polygon>
                </g>
                <g id="编组-2备份-6" transform="translate(15.733309, 34.524034) rotate(-225.000000) translate(-15.733309, -34.524034) translate(5.233309, 24.024034)" fill="#000000" fill-rule="nonzero">
                    <path d="M20.9081633,-0.5 L5.30630438,-0.5 L-0.5,5.26199993 L-0.5,20.9192341 L14.8042248,20.9192341 L20.9081633,14.8993768 L20.9081633,-0.5 Z M19.908,0.5 L19.908,14.481 L14.394,19.919 L0.5,19.919 L0.5,5.678 L5.717,0.5 L19.908,0.5 Z" id="路径备份"></path>
                    <polygon id="路径-3" points="20.0653839 -0.364008685 20.7509426 0.364008685 14.7975121 5.97022933 0 5.97022933 0 4.97022933 14.4 4.97"></polygon>
                    <polygon id="路径-4" points="15.0991464 5.47022933 15.0991464 20.4192341 14.0991464 20.4192341 14.0991464 5.47022933"></polygon>
                </g>
                <g id="编组-14" transform="translate(68.346939, 113.384196)" fill="#0C24FF" fill-rule="nonzero">
                    <polygon id="直线备份-10" transform="translate(8.163265, 3.571429) scale(1, -1) translate(-8.163265, -3.571429) " points="16.8265306 3.07142857 16.8265306 4.07142857 -0.5 4.07142857 -0.5 3.07142857"></polygon>
                    <polygon id="直线备份-9" transform="translate(9.693878, 0.510204) scale(1, -1) translate(-9.693878, -0.510204) " points="19.8877551 0.0102040816 19.8877551 1.01020408 -0.5 1.01020408 -0.5 0.0102040816"></polygon>
                    <polygon id="直线备份-11" transform="translate(9.693878, 6.632653) scale(1, -1) translate(-9.693878, -6.632653) " points="19.8877551 6.13265306 19.8877551 7.13265306 -0.5 7.13265306 -0.5 6.13265306"></polygon>
                </g>
                <g id="编组-14备份-5" transform="translate(61.204082, 32.771952)" fill="#000000" fill-rule="nonzero">
                    <polygon id="直线备份-10" transform="translate(3.854360, 3.571429) scale(1, -1) translate(-3.854360, -3.571429) " points="8.20871954 3.07142857 8.20871954 4.07142857 -0.5 4.07142857 -0.5 3.07142857"></polygon>
                    <polygon id="直线备份-9" transform="translate(3.854360, 0.510204) scale(1, -1) translate(-3.854360, -0.510204) " points="8.20871954 0.0102040816 8.20871954 1.01020408 -0.5 1.01020408 -0.5 0.0102040816"></polygon>
                    <polygon id="直线备份-11" transform="translate(3.854360, 6.632653) scale(1, -1) translate(-3.854360, -6.632653) " points="8.20871954 6.13265306 8.20871954 7.13265306 -0.5 7.13265306 -0.5 6.13265306"></polygon>
                </g>
                <g id="编组-11" transform="translate(76.863757, 37.091692) rotate(-315.000000) translate(-76.863757, -37.091692) translate(72.363757, 33.091692)" fill="#000000" fill-rule="nonzero">
                    <polygon id="直线备份-14" transform="translate(4.081633, 3.872052) scale(1, -1) translate(-4.081633, -3.872052) " points="8.66326531 3.37205151 8.66326531 4.37205151 -0.5 4.37205151 -0.5 3.37205151"></polygon>
                    <polygon id="直线备份-14" transform="translate(4.101587, 3.976842) scale(1, -1) translate(-4.101587, -3.976842) " points="4.60158701 -0.5 4.60158701 8.45368417 3.60158701 8.45368417 3.60158701 -0.5"></polygon>
                </g>
                <g id="编组-2备份-4" transform="translate(68.346939, 55.220931)" fill="#0C24FF" fill-rule="nonzero">
                    <path d="M51.5204082,3.68027211 L50.5204082,3.68027211 L50.5204082,0.680272109 L51.5204082,0.680272109 L51.5204082,3.68027211 Z M51.5204082,9.68027211 L50.5204082,9.68027211 L50.5204082,6.68027211 L51.5204082,6.68027211 L51.5204082,9.68027211 Z M51.5204082,15.6802721 L50.5204082,15.6802721 L50.5204082,12.6802721 L51.5204082,12.6802721 L51.5204082,15.6802721 Z M51.5204082,21.6802721 L50.5204082,21.6802721 L50.5204082,18.6802721 L51.5204082,18.6802721 L51.5204082,21.6802721 Z M51.5204082,27.6802721 L50.5204082,27.6802721 L50.5204082,24.6802721 L51.5204082,24.6802721 L51.5204082,27.6802721 Z M51.5204082,33.6802721 L50.5204082,33.6802721 L50.5204082,30.6802721 L51.5204082,30.6802721 L51.5204082,33.6802721 Z M49.7521356,39.3589176 L49.0499496,38.646924 L50.6693152,37.049865 L50.5204082,37.4058618 L50.5204082,36.6802721 L51.5204082,36.6802721 L51.5204082,37.6150028 L49.7521356,39.3589176 Z M45.480174,43.5720333 L44.777988,42.8600397 L46.9139688,40.7534818 L47.6161548,41.4654754 L45.480174,43.5720333 Z M41.2082123,47.785149 L40.5060264,47.0731554 L42.6420072,44.9665975 L43.3441931,45.6785911 L41.2082123,47.785149 Z M36.9362507,51.9982647 L36.2340648,51.2862711 L38.3700456,49.1797133 L39.0722315,49.8917069 L36.9362507,51.9982647 Z M30.6204679,52.2283573 L30.6204679,51.2283573 L33.6204679,51.2283573 L33.6204679,52.2283573 L30.6204679,52.2283573 Z M24.6204679,52.2283573 L24.6204679,51.2283573 L27.6204679,51.2283573 L27.6204679,52.2283573 L24.6204679,52.2283573 Z M18.6204679,52.2283573 L18.6204679,51.2283573 L21.6204679,51.2283573 L21.6204679,52.2283573 L18.6204679,52.2283573 Z M12.6204679,52.2283573 L12.6204679,51.2283573 L15.6204679,51.2283573 L15.6204679,52.2283573 L12.6204679,52.2283573 Z M6.62046792,52.2283573 L6.62046792,51.2283573 L9.62046792,51.2283573 L9.62046792,52.2283573 L6.62046792,52.2283573 Z M0.620467918,52.2283573 L0.620467918,51.2283573 L3.62046792,51.2283573 L3.62046792,52.2283573 L0.620467918,52.2283573 Z M-0.5,46.3488252 L0.5,46.3488252 L0.5,49.3488252 L-0.5,49.3488252 L-0.5,46.3488252 Z M-0.5,40.3488252 L0.5,40.3488252 L0.5,43.3488252 L-0.5,43.3488252 L-0.5,40.3488252 Z M-0.5,34.3488252 L0.5,34.3488252 L0.5,37.3488252 L-0.5,37.3488252 L-0.5,34.3488252 Z M-0.5,28.3488252 L0.5,28.3488252 L0.5,31.3488252 L-0.5,31.3488252 L-0.5,28.3488252 Z M-0.5,22.3488252 L0.5,22.3488252 L0.5,25.3488252 L-0.5,25.3488252 L-0.5,22.3488252 Z M-0.5,16.3488252 L0.5,16.3488252 L0.5,19.3488252 L-0.5,19.3488252 L-0.5,16.3488252 Z M2.4920249,11.1784215 L3.19641843,11.8882312 L1.06698944,14.0014117 L0.362595909,13.2916021 L2.4920249,11.1784215 Z M6.75088287,6.95206033 L7.4552764,7.66186999 L5.32584741,9.77505058 L4.62145389,9.06524091 L6.75088287,6.95206033 Z M11.0097408,2.72569916 L11.7141344,3.43550882 L9.58470539,5.54868941 L8.88031186,4.83887974 L11.0097408,2.72569916 Z M16.3730683,0.180272109 L16.3730683,1.18027211 L13.7807258,1.18027211 L13.7807258,0.680272109 L14.1329226,1.03517694 L13.8435634,1.32232824 L13.1391698,0.612518572 L13.5747399,0.180272109 L16.3730683,0.180272109 Z M22.3730683,0.180272109 L22.3730683,1.18027211 L19.3730683,1.18027211 L19.3730683,0.180272109 L22.3730683,0.180272109 Z M28.3730683,0.180272109 L28.3730683,1.18027211 L25.3730683,1.18027211 L25.3730683,0.180272109 L28.3730683,0.180272109 Z M34.3730683,0.180272109 L34.3730683,1.18027211 L31.3730683,1.18027211 L31.3730683,0.180272109 L34.3730683,0.180272109 Z M40.3730683,0.180272109 L40.3730683,1.18027211 L37.3730683,1.18027211 L37.3730683,0.180272109 L40.3730683,0.180272109 Z M46.3730683,0.180272109 L46.3730683,1.18027211 L43.3730683,1.18027211 L43.3730683,0.180272109 L46.3730683,0.180272109 Z M51.0204082,0.180272109 L51.0204082,1.18027211 L49.3730683,1.18027211 L49.3730683,0.180272109 L51.0204082,0.180272109 Z" id="路径备份"></path>
                    <path d="M0,14.8558454 L3,14.8558454 L3,13.8558454 L0,13.8558454 L0,14.8558454 Z M6,14.8558454 L9,14.8558454 L9,13.8558454 L6,13.8558454 L6,14.8558454 Z M12,14.8558454 L15,14.8558454 L15,13.8558454 L12,13.8558454 L12,14.8558454 Z M18,14.8558454 L21,14.8558454 L21,13.8558454 L18,13.8558454 L18,14.8558454 Z M24,14.8558454 L27,14.8558454 L27,13.8558454 L24,13.8558454 L24,14.8558454 Z M30,14.8558454 L33,14.8558454 L33,13.8558454 L30,13.8558454 L30,14.8558454 Z M36,13.8558454 L36,14.8558454 L36.6962316,14.8558454 L38.6622423,13.0044944 L37.9766837,12.276477 L36.1550866,13.9918367 L36.4978659,14.3558454 L36.4978659,13.8558454 L36,13.8558454 Z M40.8462945,10.9478183 L43.0303466,8.89114228 L42.3447879,8.16312491 L40.1607358,10.219801 L40.8462945,10.9478183 Z M45.2143987,6.83446623 L47.3984508,4.77779018 L46.7128921,4.04977281 L44.52884,6.10644886 L45.2143987,6.83446623 Z M49.5825029,2.72111413 L51.3631875,1.04428079 L50.6776288,0.316263424 L48.8969442,1.99309676 L49.5825029,2.72111413 Z" id="路径-3"></path>
                    <path d="M35.9978659,14.3558454 L35.9978659,17.3558454 L36.9978659,17.3558454 L36.9978659,14.3558454 L35.9978659,14.3558454 Z M35.9978659,20.3558454 L35.9978659,23.3558454 L36.9978659,23.3558454 L36.9978659,20.3558454 L35.9978659,20.3558454 Z M35.9978659,26.3558454 L35.9978659,29.3558454 L36.9978659,29.3558454 L36.9978659,26.3558454 L35.9978659,26.3558454 Z M35.9978659,32.3558454 L35.9978659,35.3558454 L36.9978659,35.3558454 L36.9978659,32.3558454 L35.9978659,32.3558454 Z M35.9978659,38.3558454 L35.9978659,41.3558454 L36.9978659,41.3558454 L36.9978659,38.3558454 L35.9978659,38.3558454 Z M35.9978659,44.3558454 L35.9978659,47.3558454 L36.9978659,47.3558454 L36.9978659,44.3558454 L35.9978659,44.3558454 Z M35.9978659,50.3558454 L35.9978659,51.7283573 L36.9978659,51.7283573 L36.9978659,50.3558454 L35.9978659,50.3558454 Z" id="路径-4"></path>
                </g>
                <rect id="矩形" fill="#FFFFFF" x="95.3828688" y="90.9352169" width="28.5714286" height="23.4693878"></rect>
                <path d="M77.3902041,89.8331761 L78.1502041,87.8331761 L81.4302041,87.8331761 L82.1902041,89.8331761 L83.0802041,89.8331761 L80.2702041,82.6931761 L79.3202041,82.6931761 L76.5102041,89.8331761 L77.3902041,89.8331761 Z M81.1702041,87.1431761 L78.4102041,87.1431761 L79.7802041,83.5731761 L79.8202041,83.5731761 L81.1702041,87.1431761 Z M85.572585,89.8331761 L85.572585,86.9131761 L87.662585,86.9131761 C89.302585,86.9131761 90.132585,86.2031761 90.132585,84.7931761 C90.132585,83.3931761 89.312585,82.6931761 87.672585,82.6931761 L84.752585,82.6931761 L84.752585,89.8331761 L85.572585,89.8331761 Z M87.622585,86.2031761 L85.572585,86.2031761 L85.572585,83.4031761 L87.622585,83.4031761 C88.192585,83.4031761 88.612585,83.5131761 88.892585,83.7531761 C89.172585,83.9631761 89.312585,84.3131761 89.312585,84.7931761 C89.312585,85.2731761 89.172585,85.6231761 88.902585,85.8531761 C88.622585,86.0831761 88.202585,86.2031761 87.622585,86.2031761 Z M92.944966,89.8331761 L92.944966,86.9131761 L95.034966,86.9131761 C96.674966,86.9131761 97.504966,86.2031761 97.504966,84.7931761 C97.504966,83.3931761 96.684966,82.6931761 95.044966,82.6931761 L92.124966,82.6931761 L92.124966,89.8331761 L92.944966,89.8331761 Z M94.994966,86.2031761 L92.944966,86.2031761 L92.944966,83.4031761 L94.994966,83.4031761 C95.564966,83.4031761 95.984966,83.5131761 96.264966,83.7531761 C96.544966,83.9631761 96.684966,84.3131761 96.684966,84.7931761 C96.684966,85.2731761 96.544966,85.6231761 96.274966,85.8531761 C95.994966,86.0831761 95.574966,86.2031761 94.994966,86.2031761 Z" id="APP" fill="#0C24FF" fill-rule="nonzero"></path>
                <g id="编组-22" transform="translate(120.678699, 107.658593) rotate(-45.000000) translate(-120.678699, -107.658593) translate(117.178699, 81.658593)">
                    <path d="M0,10.2040816 L1.59545961,3.87854875 C1.73052963,3.34303542 2.27414486,3.01841197 2.80965819,3.153482 C3.16775589,3.24380331 3.44692038,3.52413963 3.53574088,3.88261253 L5.10204082,10.2040816 L5.10204082,10.2040816 L5.10204082,48.4693878 C5.10204082,49.8782774 3.95991008,51.0204082 2.55102041,51.0204082 C1.14213074,51.0204082 -3.68412435e-15,49.8782774 0,48.4693878 L0,10.2040816 L0,10.2040816 Z" id="矩形" fill="#FFFFFF"></path>
                    <path d="M2.80965819,3.153482 C3.16775589,3.24380331 3.44692038,3.52413963 3.53574088,3.88261253 L5.10204082,10.2040816 L5.10204082,48.4693878 C5.10204082,49.8782774 3.95991008,51.0204082 2.55102041,51.0204082 C1.14213074,51.0204082 2.8110847e-13,49.8782774 2.8110847e-13,48.4693878 L2.8110847e-13,10.2040816 L1.59545961,3.87854875 C1.73052963,3.34303542 2.27414486,3.01841197 2.80965819,3.153482 Z M2.56509227,4.12311467 L1,10.325 L1,48.4693878 C1,49.2784035 1.61940147,49.9427503 2.40984594,50.0140696 L2.55102041,50.0204082 C3.36003616,50.0204082 4.02438295,49.4010067 4.0957023,48.6105622 L4.10204082,48.4693878 L4.102,10.327 L2.56509227,4.12311467 Z" id="矩形" fill="#000000" fill-rule="nonzero"></path>
                    <path d="M6.92807818,29.1070636 C7.17353807,29.1070636 7.37768655,29.2839388 7.42002251,29.517188 L7.42807818,29.6070636 L7.42807818,41.9059655 C7.42807818,43.1906005 6.38667578,44.2320029 5.10204082,44.2320029 C4.82589844,44.2320029 4.60204082,44.0081453 4.60204082,43.7320029 C4.60204082,43.4558605 4.82589844,43.2320029 5.10204082,43.2320029 C5.78861914,43.2320029 6.35332563,42.7102075 6.421232,42.0415451 L6.42807818,41.9059655 L6.42807818,29.6070636 C6.42807818,29.3309213 6.6519358,29.1070636 6.92807818,29.1070636 Z" id="路径-8" fill="#000000" fill-rule="nonzero"></path>
                </g>
                <g id="编组-23" transform="translate(171.913481, 91.816327)" fill="#C1C1C3" fill-rule="nonzero">
                    <path d="M28.8568072,11.0275938 L28.8568072,-0.816268917 L-0.5,14.1556235 L-0.5,25.9131394 L16.9670644,35.4917091 L28.8568072,11.0275938 Z M27.856,0.816 L27.856,10.798 L16.527,34.11 L0.499,25.32 L0.499,14.768 L27.856,0.816 Z" id="路径-9"></path>
                    <polygon id="路径-10" points="27.9134378 -0.231135555 28.8001765 0.231135555 17.246 22.394 17.246949 34.8007569 16.246949 34.8007569 16.246949 22.1477808"></polygon>
                    <polygon id="路径-11" points="0.217215481 14.0115426 16.9641644 22.0889842 16.5297335 22.9896893 -0.217215481 14.9122477"></polygon>
                </g>
            </g>
        </g>
    </g>
</svg>