<svg t="1659072543562" class="icon" viewBox="0 0 1024 1024" version="1.1" xmlns="http://www.w3.org/2000/svg" p-id="9539" width="128" height="128"><path d="M420.79573333 969.65973333c-44.2368 0-80.2816-36.0448-80.2816-80.2816V320.85333333c0-44.2368 36.0448-80.2816 80.2816-80.2816h423.79946667c44.2368 0 80.2816 36.0448 80.2816 80.2816v567.97866667c0 44.2368-36.0448 80.2816-80.2816 80.2816H420.79573333z" fill="#27C18F" p-id="9540"></path><path d="M844.5952 265.69386667c30.03733333 0 54.61333333 24.576 54.61333333 54.61333333V888.832c0 30.03733333-24.576 54.61333333-54.61333333 54.61333333H420.79573333c-30.03733333 0-54.61333333-24.576-54.61333333-54.61333333V320.85333333c0-30.03733333 24.576-54.61333333 54.61333333-54.61333333h423.79946667m0-51.33653333H420.79573333c-58.43626667 0-105.94986667 47.5136-105.94986666 105.94986666v567.97866667c0 58.43626667 47.5136 105.94986667 105.94986666 105.94986667h423.79946667c58.43626667 0 105.94986667-47.5136 105.94986667-105.94986667V320.85333333c0-58.43626667-48.05973333-105.94986667-105.94986667-105.94986666z" fill="#333333" p-id="9541"></path><path d="M420.79573333 864.256c-44.2368 0-80.2816-36.0448-80.2816-80.2816V218.7264c0-44.2368 36.0448-80.2816 80.2816-80.2816h423.79946667c44.2368 0 80.2816 36.0448 80.2816 80.2816v564.70186667c0 44.2368-36.0448 80.2816-80.2816 80.2816H420.79573333z" fill="#FFBA40" p-id="9542"></path><path d="M844.5952 164.11306667c30.03733333 0 54.61333333 24.576 54.61333333 54.61333333v564.70186667c0 30.03733333-24.576 54.61333333-54.61333333 54.61333333H420.79573333c-30.03733333 0-54.61333333-24.576-54.61333333-54.61333333V218.7264c0-30.03733333 24.576-54.61333333 54.61333333-54.61333333h423.79946667m0-51.33653334H420.79573333c-58.43626667 0-105.94986667 47.5136-105.94986666 105.94986667v564.70186667c0 58.43626667 47.5136 105.94986667 105.94986666 105.94986666h423.79946667c58.43626667 0 105.94986667-47.5136 105.94986667-105.94986666V218.7264c0-58.43626667-48.05973333-105.94986667-105.94986667-105.94986667z" fill="#333333" p-id="9543"></path><path d="M755.57546667 240.57173333c-58.43626667 0-105.94986667-47.5136-105.94986667-105.94986666s47.5136-105.94986667 105.94986667-105.94986667S861.52533333 76.1856 861.52533333 134.62186667c0 14.19946667-11.4688 25.66826667-25.66826666 25.66826666s-25.66826667-11.4688-25.66826667-25.66826666c0-30.03733333-24.576-54.61333333-54.61333333-54.61333334s-54.61333333 24.576-54.61333334 54.61333334 24.576 54.61333333 54.61333334 54.61333333c14.19946667 0 25.66826667 11.4688 25.66826666 25.66826667s-11.4688 25.66826667-25.66826666 25.66826666z" fill="#333333" p-id="9544"></path><path d="M629.9648 240.57173333c-58.43626667 0-105.94986667-47.5136-105.94986667-105.94986666s47.5136-105.94986667 105.94986667-105.94986667S735.91466667 76.73173333 735.91466667 134.62186667c0 14.19946667-11.4688 25.66826667-25.66826667 25.66826666s-25.66826667-11.4688-25.66826667-25.66826666c0-30.03733333-24.576-54.61333333-54.61333333-54.61333334s-54.61333333 24.576-54.61333333 54.61333334 24.576 54.61333333 54.61333333 54.61333333c14.19946667 0 25.66826667 11.4688 25.66826667 25.66826667s-11.4688 25.66826667-25.66826667 25.66826666z" fill="#333333" p-id="9545"></path><path d="M509.26933333 240.57173333c-58.43626667 0-105.94986667-47.5136-105.94986666-105.94986666s47.5136-105.94986667 105.94986666-105.94986667 105.94986667 47.5136 105.94986667 105.94986667c0 14.19946667-11.4688 25.66826667-25.66826667 25.66826666s-25.66826667-11.4688-25.66826666-25.66826666c0-30.03733333-24.576-54.61333333-54.61333334-54.61333334s-54.61333333 24.576-54.61333333 54.61333334 24.576 54.61333333 54.61333333 54.61333333c14.19946667 0 25.66826667 11.4688 25.66826667 25.66826667s-11.4688 25.66826667-25.66826667 25.66826666zM781.24373333 430.08H466.1248c-14.19946667 0-25.66826667-11.4688-25.66826667-25.66826667s11.4688-25.66826667 25.66826667-25.66826666h315.11893333c14.19946667 0 25.66826667 11.4688 25.66826667 25.66826666s-11.4688 25.66826667-25.66826667 25.66826667zM651.264 542.58346667H466.1248c-14.19946667 0-25.66826667-11.4688-25.66826667-25.66826667s11.4688-25.66826667 25.66826667-25.66826667h185.1392c14.19946667 0 25.66826667 11.4688 25.66826667 25.66826667s-11.4688 25.66826667-25.66826667 25.66826667z" fill="#333333" p-id="9546"></path><path d="M209.44213333 966.38293333c-12.01493333 0-22.39146667-8.192-25.12213333-19.6608l-21.2992-89.01973333c-0.54613333-2.18453333-0.54613333-3.82293333-0.54613333-6.00746667V154.8288c0-14.19946667 11.4688-25.66826667 25.66826666-25.66826667h42.05226667c14.19946667 0 25.66826667 11.4688 25.66826667 25.66826667v696.86613333c0 2.18453333 0 3.82293333-0.54613334 6.00746667l-21.2992 89.01973333c-2.73066667 11.4688-13.1072 19.6608-24.576 19.6608z" fill="#27C18F" p-id="9547"></path><path d="M230.1952 154.8288v696.86613333l-21.2992 89.01973334-21.2992-89.01973334V154.8288h42.5984m0-50.7904h-42.05226667c-28.39893333 0-51.33653333 22.9376-51.33653333 51.33653333v696.86613334c0 3.82293333 0.54613333 8.192 1.6384 12.01493333l21.2992 89.01973333c5.46133333 22.9376 26.2144 39.3216 49.69813333 39.3216s44.2368-16.384 49.69813334-39.3216l21.2992-89.01973333c1.09226667-3.82293333 1.6384-7.64586667 1.6384-12.01493333V154.8288c-0.54613333-27.8528-23.48373333-50.7904-51.88266667-50.7904z" fill="#333333" p-id="9548"></path><path d="M99.1232 454.10986667c-14.19946667 0-25.66826667-11.4688-25.66826667-25.66826667v-245.76c0-38.22933333 31.1296-69.35893333 69.35893334-69.35893333 14.19946667 0 25.66826667 11.4688 25.66826666 25.66826666s-11.4688 25.66826667-25.66826666 25.66826667c-10.37653333 0-18.56853333 8.192-18.56853334 18.56853333v245.76c0.54613333 13.65333333-10.92266667 25.12213333-25.12213333 25.12213334z" fill="#333333" p-id="9549"></path><path d="M178.31253333 762.6752c-14.19946667 0-25.66826667-11.4688-25.66826666-25.66826667v-208.0768c0-14.19946667 11.4688-25.66826667 25.66826666-25.66826666h63.8976c14.19946667 0 25.66826667 11.4688 25.66826667 25.66826666v208.0768c0 14.19946667-11.4688 25.66826667-25.66826667 25.66826667H178.31253333z" fill="#FFBA40" p-id="9550"></path><path d="M242.21013333 528.93013333v208.0768H178.31253333v-208.0768h63.8976m0-50.7904H178.31253333c-28.39893333 0-51.33653333 22.9376-51.33653333 51.33653334v208.0768c0 28.39893333 22.9376 51.33653333 51.33653333 51.33653333h63.8976c28.39893333 0 51.33653333-22.9376 51.33653334-51.33653333v-208.0768c0-28.39893333-22.9376-51.33653333-51.33653334-51.33653334z" fill="#333333" p-id="9551"></path></svg>